# xmcd CD database file
#
# Track frame offsets:
#	150
#	15845
#	34010
#	52240
#	65315
#	75235
#	92240
#	105187
#	115192
#	137932
#
# Disc length: 2046 seconds
#
# Revision: 3
# Processed by: cddbd v1.5.2PL0 Copyright (c) Steve Scherf et al.
# Submitted via: CDex 1.77
#
DISCID=7207fc0a
DTITLE=Joe Ely - Honky Tonk Masquerade
DYEAR=1978
DGENRE=Country
TTITLE0=Cornbread Moon
TTITLE1=Because Of The Wind
TTITLE2=Boxcars
TTITLE3=Jericho (Your Walls Must Come Tumbling Down)
TTITLE4=Tonight I Think I'm Gonna Go Downtown
TTITLE5=Honky Tonk Masquerade
TTITLE6=I'll Be Your Fool
TTITLE7=Fingernails
TTITLE8=West Texas Waltz
TTITLE9=Honky Tonkin'
EXTD=YEAR: 1978
EXTT0=
EXTT1=
EXTT2=
EXTT3=
EXTT4=
EXTT5=
EXTT6=
EXTT7=
EXTT8=
EXTT9=
PLAYORDER=
